<svg
  version="1.0"
  xmlns="http://www.w3.org/2000/svg"
  width="8vw"
  height="8vw"
  viewBox="0 0 500.000000 500.000000"
  preserveAspectRatio="xMidYMid meet"
>
  <g
    transform="translate(0.000000,500.000000) scale(0.100000,-0.100000)"
    fill="#ffffff"
    stroke="#ffffff"
    stroke-width="60"
    vector-effect="non-scaling-stroke"
  >
    <path
      d="M2362 4609 c-390 -33 -718 -183 -987 -454 -236 -237 -368 -488 -437
-835 -17 -86 -16 -426 1 -500 7 -30 22 -93 33 -139 71 -292 259 -592 493 -786
33 -28 62 -53 65 -56 15 -19 175 -115 263 -158 121 -59 252 -103 391 -133 84
-17 136 -21 306 -22 178 -1 220 2 320 23 543 112 976 473 1167 976 29 75 36
100 61 200 50 198 46 528 -7 725 -6 19 -14 51 -19 70 -31 116 -112 282 -203
415 -175 256 -429 456 -729 576 -199 79 -483 118 -718 98z m321 -64 c465 -61
839 -290 1096 -673 210 -312 285 -734 201 -1127 -21 -98 -85 -278 -122 -343
-10 -17 -27 -48 -38 -68 -199 -351 -551 -619 -932 -707 -157 -37 -198 -42
-393 -41 -194 0 -230 3 -382 40 -159 38 -368 136 -515 241 -209 149 -395 384
-501 633 -108 253 -141 581 -87 864 13 64 61 220 86 276 98 217 178 336 329
485 327 323 797 480 1258 420z"
    ></path>
    <path
      d="M2344 4378 c-39 -47 -54 -89 -54 -150 0 -56 33 -141 63 -167 16 -12
17 -8 18 45 0 63 12 54 24 -19 7 -45 16 -41 52 21 40 67 40 157 0 224 -29 50
-53 78 -67 78 -4 0 -21 -15 -36 -32z"
    ></path>
    <path
      d="M2062 4223 c-34 -7 -36 -25 -12 -80 38 -86 101 -134 192 -146 67 -9
85 0 52 25 -29 24 -26 35 6 18 33 -18 36 -5 10 44 -26 52 -72 101 -112 122
-31 16 -101 25 -136 17z"
    ></path>
    <path
      d="M2550 4192 c-47 -24 -60 -37 -88 -91 -18 -35 -31 -66 -28 -68 2 -3
18 3 35 11 46 24 48 19 11 -19 l-34 -35 38 0 c115 0 227 92 238 196 3 29 3 29
-58 32 -50 2 -69 -2 -114 -26z"
    ></path>
    <path
      d="M1878 4006 c-141 -58 -249 -155 -312 -279 -45 -89 -55 -162 -36 -283
10 -64 11 -93 2 -121 -11 -38 -77 -115 -141 -165 -42 -32 -47 -79 -12 -106 13
-9 35 -27 49 -38 l26 -22 -27 -39 c-15 -21 -27 -43 -27 -48 0 -5 12 -21 27
-37 25 -26 25 -29 10 -46 -22 -24 -21 -41 2 -66 26 -28 28 -43 12 -98 -17 -61
-9 -91 36 -125 36 -28 37 -28 181 -26 164 2 193 -6 252 -74 65 -74 179 -344
181 -432 1 -20 4 -47 8 -61 14 -45 34 54 28 135 -9 122 -99 323 -184 413 -29
31 -51 56 -50 57 75 43 97 59 121 84 36 37 32 38 -32 6 -77 -39 -227 -75 -334
-82 -108 -6 -154 5 -168 42 -9 24 -2 72 11 81 5 3 9 22 9 42 0 26 -6 41 -20
50 -30 18 -24 32 20 49 22 9 40 19 40 22 -1 3 -21 21 -45 39 -25 18 -45 37
-45 43 0 6 9 22 20 36 29 38 25 49 -30 89 -27 20 -50 43 -50 52 0 8 21 34 47
56 125 109 135 127 153 296 14 125 50 212 125 305 58 72 61 75 102 103 47 33
54 29 38 -25 -32 -103 -11 -219 60 -334 19 -30 70 -104 114 -163 119 -159 175
-280 231 -501 44 -171 68 -240 108 -320 42 -81 127 -170 192 -202 25 -11 79
-38 121 -57 141 -68 210 -154 210 -261 0 -93 -50 -161 -156 -212 l-50 -24 40
7 c175 28 297 189 282 372 -10 132 -92 248 -234 331 -191 112 -255 167 -329
282 -24 37 -44 71 -44 74 0 4 18 -9 41 -29 79 -72 178 -124 299 -156 185 -48
244 -76 325 -152 152 -141 176 -352 61 -525 -19 -29 -31 -53 -25 -53 5 0 36
27 70 61 42 42 72 84 97 137 32 68 37 87 40 173 2 53 -1 121 -7 150 -26 121
-119 254 -230 328 -89 59 -103 65 -366 142 -206 60 -325 131 -455 273 -34 38
-34 38 35 -12 163 -117 279 -158 550 -192 193 -24 298 -56 387 -117 95 -65
158 -145 200 -255 16 -41 20 -78 21 -166 0 -61 4 -109 7 -105 18 21 50 117 60
179 36 224 -91 459 -305 565 -91 45 -233 79 -335 79 -117 1 -312 42 -425 90
-125 53 -238 122 -309 189 -73 69 -148 184 -175 267 -8 26 -12 75 -10 135 3
77 9 103 31 147 l26 52 -41 0 c-23 0 -67 -11 -99 -24z"
    ></path>
    <path
      d="M2358 4009 c-21 -12 -23 -40 -6 -57 32 -32 80 8 58 48 -12 22 -26 25
-52 9z"
    ></path>
    <path
      d="M2127 3945 c-39 -27 -82 -86 -92 -128 -10 -37 22 -51 105 -45 95 7
146 37 184 107 l29 55 -38 -24 c-35 -21 -37 -22 -27 -3 6 11 18 25 26 32 27
23 7 31 -72 31 -66 0 -83 -4 -115 -25z"
    ></path>
    <path
      d="M2462 3961 c-23 -6 -23 -7 20 -56 43 -49 40 -51 -17 -10 -59 42 -58
42 -53 -9 3 -25 4 -46 3 -46 -2 0 -11 17 -20 37 -17 35 -18 36 -32 17 -79
-103 -83 -233 -8 -307 l28 -28 29 28 c43 41 60 81 65 156 5 62 7 66 22 53 62
-56 261 -68 261 -16 0 62 -79 157 -146 178 -44 13 -113 14 -152 3z"
    ></path>
    <path
      d="M2190 3515 c55 -80 146 -143 270 -185 58 -20 93 -23 340 -30 279 -8
300 -11 422 -56 141 -53 253 -165 315 -314 27 -66 31 -39 8 59 -20 82 -76 188
-127 241 -89 90 -229 162 -357 182 -40 6 -146 8 -266 5 -113 -3 -235 -1 -280
4 -104 13 -215 51 -293 100 l-63 39 31 -45z"
    ></path>
    <path
      d="M1663 3493 c-7 -2 -13 -13 -13 -24 0 -17 8 -19 68 -19 62 0 117 -13
150 -34 7 -4 16 -6 18 -3 6 6 -50 50 -91 71 -28 15 -105 20 -132 9z"
    ></path>
    <path
      d="M1670 3305 c0 -17 -8 -29 -25 -37 -35 -16 -26 -31 23 -42 49 -10 116
11 150 47 l21 22 -45 -4 c-45 -3 -104 14 -104 30 0 5 -4 9 -10 9 -5 0 -10 -11
-10 -25z"
    ></path>
    <path
      d="M615 1335 c-30 -29 -33 -74 -7 -104 9 -11 40 -28 67 -38 53 -20 69
-49 45 -79 -27 -32 -110 -6 -110 34 0 7 -4 12 -10 12 -5 0 -10 -16 -10 -35 0
-29 5 -37 26 -45 81 -31 173 12 174 81 0 34 -34 67 -90 88 -51 19 -70 43 -54
69 18 28 68 27 92 -2 26 -33 32 -33 32 3 0 34 -14 41 -81 41 -40 0 -55 -5 -74
-25z"
    ></path>
    <path
      d="M942 1348 c-7 -7 -12 -17 -12 -22 -1 -27 -81 -220 -97 -232 -16 -12
-12 -13 36 -14 50 0 53 1 36 14 -16 12 -18 19 -10 43 9 25 15 28 55 28 40 0
46 -3 59 -29 12 -26 12 -31 -5 -43 -15 -11 -10 -13 47 -13 52 1 61 3 48 13 -9
7 -38 69 -65 139 -49 128 -63 145 -92 116z m26 -95 c5 -16 13 -36 17 -45 6
-15 1 -18 -33 -18 l-41 0 16 45 c17 52 27 56 41 18z"
    ></path>
    <path
      d="M1150 1350 c0 -5 7 -10 15 -10 12 0 15 -20 15 -116 0 -100 -3 -119
-17 -130 -15 -11 -1 -13 93 -14 l112 0 4 36 c5 46 -4 50 -31 14 -18 -25 -29
-30 -61 -30 l-40 0 0 120 c0 100 3 120 15 120 8 0 15 5 15 10 0 6 -27 10 -60
10 -33 0 -60 -4 -60 -10z"
    ></path>
    <path
      d="M1530 1348 c0 -22 -82 -233 -98 -250 -14 -17 -12 -18 33 -18 41 0 46
2 32 13 -13 9 -15 19 -9 42 9 32 40 43 87 31 28 -7 45 -63 24 -77 -9 -5 8 -9
45 -9 55 0 58 1 44 18 -8 9 -29 55 -47 102 -18 47 -37 94 -41 105 -5 11 -11
28 -14 38 -6 19 -56 24 -56 5z m29 -95 c8 -21 16 -44 18 -50 4 -9 -6 -13 -32
-13 -34 0 -37 2 -31 23 4 12 9 34 12 50 9 37 17 34 33 -10z"
    ></path>
    <path
      d="M1868 1344 c20 -15 22 -24 22 -127 0 -93 -3 -112 -17 -124 -16 -12
-4 -13 90 -11 108 3 109 3 137 35 57 64 46 167 -23 217 -24 17 -46 21 -130 24
-96 2 -101 1 -79 -14z m158 -23 c57 -35 66 -146 16 -196 -20 -20 -34 -25 -61
-23 l-36 3 -3 104 c-1 58 0 111 2 118 8 19 46 16 82 -6z"
    ></path>
    <path
      d="M2180 1351 c0 -5 7 -11 15 -15 12 -4 15 -27 15 -120 0 -99 -2 -116
-17 -125 -13 -8 13 -10 94 -11 112 0 113 0 119 25 9 36 -2 42 -29 17 -16 -15
-36 -22 -65 -22 l-42 0 0 55 c0 53 1 55 27 55 14 0 35 -7 45 -17 17 -15 18
-14 18 25 0 45 -4 50 -25 28 -8 -7 -25 -11 -39 -9 -24 5 -26 10 -26 54 0 47 1
49 29 49 15 0 40 -9 54 -20 33 -26 37 -25 37 10 l0 30 -105 0 c-58 0 -105 -4
-105 -9z"
    ></path>
    <path
      d="M2560 1350 c0 -5 7 -10 15 -10 23 0 22 -228 -2 -245 -13 -10 -4 -13
56 -19 70 -7 89 -5 143 16 49 18 48 98 -2 120 l-28 12 24 23 c31 28 31 57 -1
88 -22 23 -32 25 -115 25 -53 0 -90 -4 -90 -10z m152 -27 c21 -19 24 -56 5
-71 -6 -6 -24 -13 -40 -17 l-27 -7 0 56 c0 51 2 56 22 56 12 0 30 -7 40 -17z
m9 -123 c13 -7 19 -21 19 -43 0 -42 -15 -57 -57 -57 l-33 0 0 55 c0 52 1 55
26 55 14 0 34 -5 45 -10z"
    ></path>
    <path
      d="M2850 1350 c0 -5 7 -10 15 -10 12 0 15 -20 15 -116 0 -99 -3 -119
-17 -130 -15 -12 -1 -13 97 -11 l115 2 3 28 c4 32 -8 35 -33 7 -13 -14 -31
-20 -62 -20 l-43 0 0 55 c0 54 0 55 29 55 16 0 37 -7 45 -16 15 -14 16 -12 16
27 0 32 -3 39 -12 31 -13 -10 -40 -15 -65 -13 -9 1 -13 18 -13 51 0 48 1 50
29 50 15 0 40 -9 54 -20 33 -26 37 -25 37 10 l0 30 -105 0 c-63 0 -105 -4
-105 -10z"
    ></path>
    <path
      d="M3130 1351 c0 -5 7 -11 15 -15 12 -4 15 -27 15 -117 0 -95 -3 -114
-17 -125 -15 -12 -2 -13 92 -11 l110 2 3 40 3 40 -26 -32 c-22 -27 -33 -33
-66 -33 l-39 0 0 120 c0 100 3 120 15 120 8 0 15 5 15 10 0 6 -27 10 -60 10
-33 0 -60 -4 -60 -9z"
    ></path>
    <path
      d="M3408 1343 c20 -14 22 -23 22 -124 0 -100 -2 -109 -22 -123 -21 -15
-14 -16 95 -16 l117 0 0 40 c0 22 -4 40 -10 40 -5 0 -10 -6 -10 -13 0 -24 -36
-47 -73 -47 l-37 0 0 116 c0 100 3 119 18 130 15 12 7 13 -53 13 -67 0 -69 -1
-47 -16z"
    ></path>
    <path
      d="M3660 1350 c0 -5 7 -10 15 -10 12 0 15 -20 15 -120 0 -103 -2 -120
-17 -129 -13 -8 15 -10 100 -11 l117 0 0 30 c0 36 -3 37 -31 9 -15 -15 -30
-19 -62 -17 l-42 3 0 50 c0 49 1 50 33 53 22 2 34 -2 38 -12 10 -25 24 -8 24
30 0 38 -2 39 -33 21 -12 -8 -28 -13 -34 -12 -7 2 -18 3 -24 4 -6 0 -9 20 -7
49 l3 47 39 -1 c24 -1 44 -8 51 -18 18 -24 25 -20 25 14 l0 30 -105 0 c-63 0
-105 -4 -105 -10z"
    ></path>
    <path
      d="M3948 1323 c-5 -39 1 -59 10 -34 11 31 43 51 82 51 22 0 40 -3 40 -6
0 -3 -29 -54 -65 -114 -93 -154 -95 -140 28 -140 l105 0 7 36 c8 44 1 54 -16
22 -6 -12 -17 -26 -23 -30 -15 -11 -106 -10 -106 0 0 5 18 37 40 71 22 34 40
64 40 67 0 3 14 25 30 49 17 24 30 48 30 54 0 7 -35 11 -99 11 l-99 0 -4 -37z"
    ></path>
    <path
      d="M4303 1303 c-53 -148 -74 -198 -88 -206 -28 -15 -15 -22 33 -18 26 2
41 6 35 8 -18 6 -16 49 3 67 28 29 91 16 105 -23 8 -20 7 -28 -7 -38 -15 -11
-8 -13 47 -13 52 1 61 3 48 13 -9 7 -38 69 -65 139 -41 108 -52 128 -70 128
-17 0 -25 -12 -41 -57z m50 -68 l16 -45 -39 0 -39 0 16 45 c8 25 19 45 23 45
4 0 15 -20 23 -45z"
    ></path>
    <path
      d="M834 918 c-4 -6 -3 -13 3 -15 6 -2 18 -10 28 -17 20 -14 20 -27 6
-286 -6 -124 -6 -125 -34 -138 -44 -21 -22 -32 64 -32 77 0 105 13 54 26 -13
3 -27 15 -31 26 -3 11 -3 90 1 176 l8 156 19 -44 c11 -25 24 -54 29 -65 89
-207 120 -271 133 -273 16 -4 30 23 94 183 22 55 51 123 64 150 l23 50 6 -95
c4 -52 7 -130 8 -173 1 -74 0 -78 -24 -87 -53 -20 -25 -30 85 -30 112 0 140
11 81 31 -33 12 -36 28 -47 277 l-7 151 27 7 c53 13 21 29 -58 29 l-77 0 -60
-145 c-33 -80 -65 -156 -70 -170 -10 -24 -11 -24 -22 -5 -7 11 -41 88 -77 170
l-66 150 -76 3 c-52 2 -79 -1 -84 -10z"
    ></path>
    <path
      d="M1742 903 c-145 -391 -163 -434 -188 -443 -48 -19 -24 -30 61 -30 69
0 85 3 85 15 0 8 -9 15 -20 15 -29 0 -35 24 -18 78 l15 47 82 3 82 3 20 -46
c24 -55 22 -79 -9 -83 -12 -2 -22 -10 -22 -18 0 -11 21 -14 105 -14 83 0 105
3 105 14 0 7 -8 16 -17 18 -10 3 -23 16 -30 29 -14 30 -80 201 -129 337 l-38
102 -37 0 c-31 0 -38 -4 -47 -27z m28 -111 c0 -10 3 -22 7 -25 3 -4 14 -28 23
-54 10 -27 21 -56 25 -65 6 -16 0 -18 -59 -18 -36 0 -66 3 -66 7 0 4 12 44 27
90 26 79 43 105 43 65z"
    ></path>
    <path
      d="M2117 923 c-12 -11 -8 -23 7 -23 8 0 22 -7 30 -16 13 -13 16 -46 16
-208 0 -199 -3 -216 -42 -216 -10 0 -18 -7 -18 -15 0 -12 19 -15 110 -15 73 0
110 4 110 11 0 6 -8 13 -19 16 -28 7 -41 46 -41 123 0 67 1 70 24 70 19 0 32
-16 71 -82 73 -128 85 -138 167 -138 72 0 87 11 39 28 -21 7 -44 35 -85 101
-31 50 -56 95 -56 100 0 6 13 17 29 27 39 23 61 64 61 114 0 34 -6 48 -33 75
-18 18 -51 38 -72 44 -43 12 -287 15 -298 4z m268 -68 c29 -28 34 -88 10 -121
-18 -26 -65 -47 -97 -42 -22 3 -23 8 -26 82 -2 44 -1 85 2 93 9 24 84 16 111
-12z"
    ></path>
    <path
      d="M2630 860 c0 -77 17 -95 40 -40 17 40 28 47 83 53 l47 5 -2 -201 -3
-202 -27 -13 c-52 -24 -30 -32 93 -32 92 0 120 3 117 13 -3 6 -13 14 -24 16
-43 8 -44 15 -44 223 l0 200 53 -7 c64 -9 64 -9 82 -51 8 -19 21 -34 30 -34
13 0 14 10 9 58 -3 31 -7 63 -10 70 -2 9 -56 12 -224 12 l-220 0 0 -70z"
    ></path>
    <path
      d="M3150 916 c0 -8 9 -18 21 -21 33 -11 39 -46 39 -218 0 -186 -4 -205
-36 -213 -13 -3 -24 -12 -24 -20 0 -11 22 -14 105 -14 78 0 105 3 105 13 0 7
-10 17 -22 22 -21 9 -23 18 -26 103 l-3 92 106 0 105 0 0 -84 c0 -97 -5 -116
-31 -116 -10 0 -19 -7 -19 -15 0 -12 18 -15 105 -15 87 0 105 3 105 15 0 8 -7
15 -15 15 -8 0 -19 9 -25 19 -11 22 -14 380 -2 397 4 6 17 15 30 19 13 3 21
12 19 18 -2 8 -40 13 -110 15 -91 2 -107 0 -107 -13 0 -8 4 -15 9 -15 29 0 41
-34 41 -111 l0 -79 -105 0 -105 0 0 86 0 85 30 11 c58 20 28 33 -83 36 -89 2
-107 0 -107 -12z"
    ></path>
    <path
      d="M3910 788 c-81 -217 -97 -261 -109 -291 -6 -15 -22 -32 -36 -37 -49
-19 -26 -30 60 -30 69 0 85 3 85 15 0 8 -7 15 -15 15 -7 0 -18 7 -23 16 -12
22 9 93 31 106 9 5 47 8 84 6 62 -3 69 -5 80 -29 7 -15 16 -41 19 -58 6 -26 3
-32 -20 -41 -54 -20 -26 -30 84 -30 61 0 110 3 110 7 0 3 -13 18 -29 32 -19
18 -41 58 -66 126 -44 121 -94 253 -105 280 -5 11 -11 28 -14 38 -4 12 -16 17
-44 17 l-39 0 -53 -142z m99 -71 l30 -87 -65 0 c-35 0 -64 4 -64 9 0 5 11 40
25 77 14 38 28 75 31 83 7 21 12 12 43 -82z"
    ></path>
  </g>
</svg>
